STARTFONT 2.1
FONT -FontForge-IBM Plex Mono Medium-Medium-R-Normal--20-190-75-75-C-120-ISO10646-1
SIZE 19 75 75
FONTBOUNDINGBOX 12 20 0 -4
COMMENT "Generated by fontforge, http://fontforge.sourceforge.net"
COMMENT "Copyright 2017 IBM Corp. All rights reserved."
STARTPROPERTIES 40
FOUNDRY "FontForge"
FAMILY_NAME "IBM Plex Mono Medium"
WEIGHT_NAME "Medium"
SLANT "R"
SETWIDTH_NAME "Normal"
ADD_STYLE_NAME ""
PIXEL_SIZE 20
POINT_SIZE 190
RESOLUTION_X 75
RESOLUTION_Y 75
SPACING "C"
AVERAGE_WIDTH 120
CHARSET_REGISTRY "ISO10646"
CHARSET_ENCODING "1"
FONTNAME_REGISTRY ""
CHARSET_COLLECTIONS "ISO10646-1"
FONT_NAME "IBMPlexMono-Medium"
FACE_NAME "IBM Plex Mono Medium"
COPYRIGHT "Copyright 2017 IBM Corp. All rights reserved."
FONT_VERSION "2.1"
FONT_ASCENT 16
FONT_DESCENT 4
UNDERLINE_POSITION -3
UNDERLINE_THICKNESS 2
X_HEIGHT 9
CAP_HEIGHT 13
RAW_ASCENT 780
RAW_DESCENT 220
NORM_SPACE 12
RELATIVE_WEIGHT 50
RELATIVE_SETWIDTH 50
SUPERSCRIPT_X 0
SUPERSCRIPT_Y 7
SUPERSCRIPT_SIZE 12
SUBSCRIPT_X 0
SUBSCRIPT_Y 1
SUBSCRIPT_SIZE 12
FIGURE_WIDTH 12
AVG_LOWERCASE_WIDTH 120
AVG_UPPERCASE_WIDTH 120
ENDPROPERTIES
CHARS 95
STARTCHAR space
ENCODING 32
SWIDTH 600 0
DWIDTH 12 0
BBX 1 1 0 0
BITMAP
00
ENDCHAR
STARTCHAR exclam
ENCODING 33
SWIDTH 600 0
DWIDTH 12 0
BBX 4 14 4 0
BITMAP
60
60
60
60
60
60
60
60
40
00
00
60
F0
60
ENDCHAR
STARTCHAR quotedbl
ENCODING 34
SWIDTH 600 0
DWIDTH 12 0
BBX 6 6 3 9
BITMAP
CC
CC
CC
CC
CC
CC
ENDCHAR
STARTCHAR numbersign
ENCODING 35
SWIDTH 600 0
DWIDTH 12 0
BBX 12 14 0 0
BITMAP
0CC0
0CC0
0CC0
0C80
79F0
79F0
1980
1980
F9E0
F9E0
1300
3300
3300
3300
ENDCHAR
STARTCHAR dollar
ENCODING 36
SWIDTH 600 0
DWIDTH 12 0
BBX 10 18 1 -2
BITMAP
0C00
0C00
3F00
7F80
6DC0
CC80
EC00
7C00
7F00
1F80
0DC0
0CC0
4CC0
EDC0
7F80
3F00
0C00
0C00
ENDCHAR
STARTCHAR percent
ENCODING 37
SWIDTH 600 0
DWIDTH 12 0
BBX 12 14 0 0
BITMAP
3830
7C60
C440
C4C0
C480
7D80
3800
01C0
1BE0
1230
3230
2230
63E0
C1C0
ENDCHAR
STARTCHAR ampersand
ENCODING 38
SWIDTH 600 0
DWIDTH 12 0
BBX 12 14 0 0
BITMAP
1E00
3F00
3180
3000
3000
3800
3CE0
7CE0
66C0
E7C0
E380
61C0
7EC0
3C70
ENDCHAR
STARTCHAR quotesingle
ENCODING 39
SWIDTH 600 0
DWIDTH 12 0
BBX 2 6 5 9
BITMAP
C0
C0
C0
C0
C0
C0
ENDCHAR
STARTCHAR parenleft
ENCODING 40
SWIDTH 600 0
DWIDTH 12 0
BBX 6 18 4 -3
BITMAP
1C
30
30
60
60
C0
C0
C0
C0
C0
C0
C0
C0
60
60
30
30
1C
ENDCHAR
STARTCHAR parenright
ENCODING 41
SWIDTH 600 0
DWIDTH 12 0
BBX 6 18 2 -3
BITMAP
E0
30
30
18
18
0C
0C
0C
0C
0C
0C
0C
0C
18
18
30
30
E0
ENDCHAR
STARTCHAR asterisk
ENCODING 42
SWIDTH 600 0
DWIDTH 12 0
BBX 10 10 1 1
BITMAP
0C00
0C00
0C00
EDC0
FFC0
1E00
1E00
3300
7380
2100
ENDCHAR
STARTCHAR plus
ENCODING 43
SWIDTH 600 0
DWIDTH 12 0
BBX 10 10 1 1
BITMAP
0C00
0C00
0C00
0C00
FFC0
FFC0
0C00
0C00
0C00
0C00
ENDCHAR
STARTCHAR comma
ENCODING 44
SWIDTH 600 0
DWIDTH 12 0
BBX 4 6 4 -3
BITMAP
70
60
E0
E0
C0
C0
ENDCHAR
STARTCHAR hyphen
ENCODING 45
SWIDTH 600 0
DWIDTH 12 0
BBX 6 2 3 5
BITMAP
FC
FC
ENDCHAR
STARTCHAR period
ENCODING 46
SWIDTH 600 0
DWIDTH 12 0
BBX 4 3 4 0
BITMAP
60
F0
60
ENDCHAR
STARTCHAR slash
ENCODING 47
SWIDTH 600 0
DWIDTH 12 0
BBX 8 18 2 -3
BITMAP
03
03
06
06
06
0C
0C
0C
18
18
30
30
30
60
60
60
C0
C0
ENDCHAR
STARTCHAR zero
ENCODING 48
SWIDTH 600 0
DWIDTH 12 0
BBX 10 14 1 0
BITMAP
1E00
7F80
6180
E1C0
C0C0
CCC0
CCC0
CCC0
C0C0
C0C0
E1C0
6180
7F80
1E00
ENDCHAR
STARTCHAR one
ENCODING 49
SWIDTH 600 0
DWIDTH 12 0
BBX 10 14 1 0
BITMAP
1E00
3E00
7600
E600
C600
4600
0600
0600
0600
0600
0600
0600
7FC0
7FC0
ENDCHAR
STARTCHAR two
ENCODING 50
SWIDTH 600 0
DWIDTH 12 0
BBX 10 14 1 0
BITMAP
1E00
7F80
E380
C180
0180
0180
0380
0700
0E00
1C00
3800
6000
FFC0
FFC0
ENDCHAR
STARTCHAR three
ENCODING 51
SWIDTH 600 0
DWIDTH 12 0
BBX 10 14 1 0
BITMAP
3E00
7F80
E380
4180
0180
0380
1F00
1F00
0180
01C0
41C0
E180
7F80
3E00
ENDCHAR
STARTCHAR four
ENCODING 52
SWIDTH 600 0
DWIDTH 12 0
BBX 10 14 1 0
BITMAP
0700
0F00
0F00
1B00
1B00
3300
6300
6300
C300
FFC0
FFC0
0300
0300
0300
ENDCHAR
STARTCHAR five
ENCODING 53
SWIDTH 600 0
DWIDTH 12 0
BBX 10 14 1 0
BITMAP
7F80
7F80
6000
6000
6000
6F00
7F80
61C0
01C0
00C0
41C0
E180
7F80
1E00
ENDCHAR
STARTCHAR six
ENCODING 54
SWIDTH 600 0
DWIDTH 12 0
BBX 10 14 1 0
BITMAP
0F00
1C00
3800
3000
6000
6F00
DF80
E1C0
C0C0
C0C0
C0C0
61C0
7F80
1E00
ENDCHAR
STARTCHAR seven
ENCODING 55
SWIDTH 600 0
DWIDTH 12 0
BBX 10 14 1 0
BITMAP
FFC0
FFC0
C1C0
C180
C380
0300
0300
0600
0600
0E00
0C00
1C00
1800
3800
ENDCHAR
STARTCHAR eight
ENCODING 56
SWIDTH 600 0
DWIDTH 12 0
BBX 10 14 1 0
BITMAP
3F00
7F80
6180
E1C0
E1C0
6180
3F00
3F00
E1C0
C0C0
C0C0
E1C0
7F80
3F00
ENDCHAR
STARTCHAR nine
ENCODING 57
SWIDTH 600 0
DWIDTH 12 0
BBX 10 14 1 0
BITMAP
1E00
7F80
E180
C0C0
C0C0
C0C0
E1C0
7EC0
3D80
0180
0300
0700
0E00
3C00
ENDCHAR
STARTCHAR colon
ENCODING 58
SWIDTH 600 0
DWIDTH 12 0
BBX 4 10 4 0
BITMAP
60
F0
60
00
00
00
00
60
F0
60
ENDCHAR
STARTCHAR semicolon
ENCODING 59
SWIDTH 600 0
DWIDTH 12 0
BBX 4 13 4 -3
BITMAP
60
F0
60
00
00
00
00
70
60
E0
E0
C0
C0
ENDCHAR
STARTCHAR less
ENCODING 60
SWIDTH 600 0
DWIDTH 12 0
BBX 8 12 2 0
BITMAP
01
03
0F
3C
F0
C0
C0
F0
3C
0F
03
01
ENDCHAR
STARTCHAR equal
ENCODING 61
SWIDTH 600 0
DWIDTH 12 0
BBX 10 6 1 3
BITMAP
FFC0
FFC0
0000
0000
FFC0
FFC0
ENDCHAR
STARTCHAR greater
ENCODING 62
SWIDTH 600 0
DWIDTH 12 0
BBX 8 12 2 0
BITMAP
80
C0
F0
3C
0F
03
03
0F
3C
F0
C0
80
ENDCHAR
STARTCHAR question
ENCODING 63
SWIDTH 600 0
DWIDTH 12 0
BBX 9 14 1 0
BITMAP
1E00
7F80
6180
E180
0180
0380
0F00
0C00
0C00
0000
0000
1C00
1C00
1C00
ENDCHAR
STARTCHAR at
ENCODING 64
SWIDTH 600 0
DWIDTH 12 0
BBX 10 16 1 -2
BITMAP
1E00
7F80
6180
40C0
C6C0
CFC0
D8C0
D8C0
D8C0
D8C0
CFC0
CEC0
6000
7000
3F00
1F00
ENDCHAR
STARTCHAR A
ENCODING 65
SWIDTH 600 0
DWIDTH 12 0
BBX 12 14 0 0
BITMAP
0F00
0F00
0F00
1F80
1980
1980
1980
30C0
3FC0
3FC0
70E0
6060
6060
E070
ENDCHAR
STARTCHAR B
ENCODING 66
SWIDTH 600 0
DWIDTH 12 0
BBX 9 14 2 0
BITMAP
FE00
FF00
C300
C300
C300
C300
FE00
FF00
C380
C180
C180
C380
FF00
FE00
ENDCHAR
STARTCHAR C
ENCODING 67
SWIDTH 600 0
DWIDTH 12 0
BBX 10 14 1 0
BITMAP
1F00
3F80
71C0
60C0
E000
E000
E000
E000
E000
E000
60C0
71C0
3F80
1F00
ENDCHAR
STARTCHAR D
ENCODING 68
SWIDTH 600 0
DWIDTH 12 0
BBX 9 14 2 0
BITMAP
FC00
FF00
C700
C380
C180
C180
C180
C180
C180
C180
C380
C700
FF00
FC00
ENDCHAR
STARTCHAR E
ENCODING 69
SWIDTH 600 0
DWIDTH 12 0
BBX 8 14 2 0
BITMAP
FF
FF
C0
C0
C0
C0
FF
FF
C0
C0
C0
C0
FF
FF
ENDCHAR
STARTCHAR F
ENCODING 70
SWIDTH 600 0
DWIDTH 12 0
BBX 9 14 2 0
BITMAP
FF80
FF80
C000
C000
C000
C000
FF00
FF00
C000
C000
C000
C000
C000
C000
ENDCHAR
STARTCHAR G
ENCODING 71
SWIDTH 600 0
DWIDTH 12 0
BBX 10 14 1 0
BITMAP
1E00
7F80
6180
E1C0
C000
C000
C000
C7C0
C7C0
C0C0
E0C0
61C0
7EC0
3CC0
ENDCHAR
STARTCHAR H
ENCODING 72
SWIDTH 600 0
DWIDTH 12 0
BBX 10 14 1 0
BITMAP
E1C0
E1C0
E1C0
E1C0
E1C0
E1C0
FFC0
FFC0
E1C0
E1C0
E1C0
E1C0
E1C0
E1C0
ENDCHAR
STARTCHAR I
ENCODING 73
SWIDTH 600 0
DWIDTH 12 0
BBX 8 14 2 0
BITMAP
FF
FF
18
18
18
18
18
18
18
18
18
18
FF
FF
ENDCHAR
STARTCHAR J
ENCODING 74
SWIDTH 600 0
DWIDTH 12 0
BBX 9 14 1 0
BITMAP
3F80
3F80
0180
0180
0180
0180
0180
0180
0180
0180
C180
6380
7F00
3E00
ENDCHAR
STARTCHAR K
ENCODING 75
SWIDTH 600 0
DWIDTH 12 0
BBX 10 14 2 0
BITMAP
C1C0
C300
C700
CE00
CC00
D800
F800
FC00
EE00
C600
C700
C300
C380
C1C0
ENDCHAR
STARTCHAR L
ENCODING 76
SWIDTH 600 0
DWIDTH 12 0
BBX 9 14 2 0
BITMAP
C000
C000
C000
C000
C000
C000
C000
C000
C000
C000
C000
C000
FF80
FF80
ENDCHAR
STARTCHAR M
ENCODING 77
SWIDTH 600 0
DWIDTH 12 0
BBX 10 14 1 0
BITMAP
E1C0
E1C0
F3C0
F3C0
DEC0
DEC0
CCC0
CCC0
CCC0
C8C0
C0C0
C0C0
C0C0
C0C0
ENDCHAR
STARTCHAR N
ENCODING 78
SWIDTH 600 0
DWIDTH 12 0
BBX 10 14 1 0
BITMAP
F0C0
F0C0
F0C0
D8C0
D8C0
D8C0
CCC0
CCC0
C6C0
C6C0
C6C0
C3C0
C3C0
C3C0
ENDCHAR
STARTCHAR O
ENCODING 79
SWIDTH 600 0
DWIDTH 12 0
BBX 10 14 1 0
BITMAP
1E00
7F80
6180
E1C0
C0C0
C0C0
C0C0
C0C0
C0C0
C0C0
E1C0
6180
7F80
1E00
ENDCHAR
STARTCHAR P
ENCODING 80
SWIDTH 600 0
DWIDTH 12 0
BBX 9 14 2 0
BITMAP
FE00
FF00
C380
C180
C180
C180
C380
FF00
FE00
C000
C000
C000
C000
C000
ENDCHAR
STARTCHAR Q
ENCODING 81
SWIDTH 600 0
DWIDTH 12 0
BBX 10 18 1 -4
BITMAP
1E00
7F80
6180
E1C0
C0C0
C0C0
C0C0
C0C0
C0C0
C0C0
E1C0
6180
7F80
1F00
0C00
0C00
0F80
0780
ENDCHAR
STARTCHAR R
ENCODING 82
SWIDTH 600 0
DWIDTH 12 0
BBX 9 14 2 0
BITMAP
FE00
FF00
C380
C180
C180
C180
C380
FF00
FE00
CC00
C600
C700
C300
C380
ENDCHAR
STARTCHAR S
ENCODING 83
SWIDTH 600 0
DWIDTH 12 0
BBX 10 14 1 0
BITMAP
3F00
7F80
61C0
E100
E000
7000
7F00
1F80
01C0
00C0
40C0
E1C0
7F80
3F00
ENDCHAR
STARTCHAR T
ENCODING 84
SWIDTH 600 0
DWIDTH 12 0
BBX 12 14 0 0
BITMAP
FFF0
FFF0
0600
0600
0600
0600
0600
0600
0600
0600
0600
0600
0600
0600
ENDCHAR
STARTCHAR U
ENCODING 85
SWIDTH 600 0
DWIDTH 12 0
BBX 10 14 1 0
BITMAP
E1C0
E1C0
E1C0
E1C0
E1C0
E1C0
E1C0
E1C0
E1C0
E1C0
6180
6180
7F80
3F00
ENDCHAR
STARTCHAR V
ENCODING 86
SWIDTH 600 0
DWIDTH 12 0
BBX 12 14 0 0
BITMAP
E070
6060
7060
70E0
30C0
30C0
39C0
1980
1980
1980
1F80
0F00
0F00
0F00
ENDCHAR
STARTCHAR W
ENCODING 87
SWIDTH 600 0
DWIDTH 12 0
BBX 12 14 0 0
BITMAP
C030
6020
6060
6660
6660
6F60
6F60
6F60
6960
6960
6960
79E0
79E0
79E0
ENDCHAR
STARTCHAR X
ENCODING 88
SWIDTH 600 0
DWIDTH 12 0
BBX 12 14 0 0
BITMAP
6060
30E0
38C0
1980
1F80
0F00
0F00
0F00
0F00
1980
39C0
30C0
70E0
E070
ENDCHAR
STARTCHAR Y
ENCODING 89
SWIDTH 600 0
DWIDTH 12 0
BBX 12 14 0 0
BITMAP
E070
70E0
30C0
39C0
1980
1F80
0F00
0F00
0600
0600
0600
0600
0600
0600
ENDCHAR
STARTCHAR Z
ENCODING 90
SWIDTH 600 0
DWIDTH 12 0
BBX 10 14 1 0
BITMAP
FFC0
FFC0
0180
0380
0700
0600
0C00
1C00
3800
3000
7000
E000
FFC0
FFC0
ENDCHAR
STARTCHAR bracketleft
ENCODING 91
SWIDTH 600 0
DWIDTH 12 0
BBX 6 18 4 -3
BITMAP
FC
FC
C0
C0
C0
C0
C0
C0
C0
C0
C0
C0
C0
C0
C0
C0
FC
FC
ENDCHAR
STARTCHAR backslash
ENCODING 92
SWIDTH 600 0
DWIDTH 12 0
BBX 8 18 2 -3
BITMAP
C0
C0
60
60
60
30
30
30
18
18
0C
0C
0C
06
06
06
03
03
ENDCHAR
STARTCHAR bracketright
ENCODING 93
SWIDTH 600 0
DWIDTH 12 0
BBX 6 18 2 -3
BITMAP
FC
FC
0C
0C
0C
0C
0C
0C
0C
0C
0C
0C
0C
0C
0C
0C
FC
FC
ENDCHAR
STARTCHAR asciicircum
ENCODING 94
SWIDTH 600 0
DWIDTH 12 0
BBX 10 9 1 5
BITMAP
0C00
1E00
1E00
3300
7380
6180
E1C0
C0C0
8080
ENDCHAR
STARTCHAR underscore
ENCODING 95
SWIDTH 600 0
DWIDTH 12 0
BBX 10 2 1 -4
BITMAP
FFC0
FFC0
ENDCHAR
STARTCHAR grave
ENCODING 96
SWIDTH 600 0
DWIDTH 12 0
BBX 4 4 3 12
BITMAP
60
E0
30
30
ENDCHAR
STARTCHAR a
ENCODING 97
SWIDTH 600 0
DWIDTH 12 0
BBX 10 10 1 0
BITMAP
3E00
7F00
6380
0180
3F80
7F80
E180
E380
7FC0
3DC0
ENDCHAR
STARTCHAR b
ENCODING 98
SWIDTH 600 0
DWIDTH 12 0
BBX 9 15 2 0
BITMAP
C000
C000
C000
C000
C000
DE00
FF00
C380
C180
C180
C180
C180
C380
FF00
DE00
ENDCHAR
STARTCHAR c
ENCODING 99
SWIDTH 600 0
DWIDTH 12 0
BBX 10 10 1 0
BITMAP
1F00
3F80
7180
6100
6000
E000
6100
71C0
3F80
1F00
ENDCHAR
STARTCHAR d
ENCODING 100
SWIDTH 600 0
DWIDTH 12 0
BBX 9 15 1 0
BITMAP
0180
0180
0180
0180
0180
3D80
7F80
E180
C180
C180
C180
C180
E180
7F80
3D80
ENDCHAR
STARTCHAR e
ENCODING 101
SWIDTH 600 0
DWIDTH 12 0
BBX 10 10 1 0
BITMAP
1E00
7F80
6180
C0C0
FFC0
FFC0
C000
6180
7F80
1F00
ENDCHAR
STARTCHAR f
ENCODING 102
SWIDTH 600 0
DWIDTH 12 0
BBX 10 15 1 0
BITMAP
07C0
0FC0
0C00
0C00
0C00
FFC0
FFC0
0C00
0C00
0C00
0C00
0C00
0C00
7FC0
7FC0
ENDCHAR
STARTCHAR g
ENCODING 103
SWIDTH 600 0
DWIDTH 12 0
BBX 10 16 1 -4
BITMAP
01C0
01C0
1F00
7F80
6180
6180
6180
7F00
1E00
6000
7F80
3FC0
40C0
C0C0
FFC0
3F00
ENDCHAR
STARTCHAR h
ENCODING 104
SWIDTH 600 0
DWIDTH 12 0
BBX 8 15 2 0
BITMAP
C0
C0
C0
C0
C0
DE
FF
C3
C3
C3
C3
C3
C3
C3
C3
ENDCHAR
STARTCHAR i
ENCODING 105
SWIDTH 600 0
DWIDTH 12 0
BBX 9 15 2 0
BITMAP
1C00
1C00
1C00
0000
0000
FC00
FC00
0C00
0C00
0C00
0C00
0C00
0C00
FF80
FF80
ENDCHAR
STARTCHAR j
ENCODING 106
SWIDTH 600 0
DWIDTH 12 0
BBX 7 19 2 -4
BITMAP
0E
0E
0E
00
00
FE
FE
06
06
06
06
06
06
06
06
06
06
FE
FC
ENDCHAR
STARTCHAR k
ENCODING 107
SWIDTH 600 0
DWIDTH 12 0
BBX 10 15 2 0
BITMAP
C000
C000
C000
C000
C000
C380
C700
CC00
D800
F800
EC00
CE00
C700
C300
C1C0
ENDCHAR
STARTCHAR l
ENCODING 108
SWIDTH 600 0
DWIDTH 12 0
BBX 10 15 1 0
BITMAP
FC00
FC00
0C00
0C00
0C00
0C00
0C00
0C00
0C00
0C00
0C00
0C00
0C00
FFC0
FFC0
ENDCHAR
STARTCHAR m
ENCODING 109
SWIDTH 600 0
DWIDTH 12 0
BBX 10 10 1 0
BITMAP
D980
FFC0
CCC0
CCC0
CCC0
CCC0
CCC0
CCC0
CCC0
CCC0
ENDCHAR
STARTCHAR n
ENCODING 110
SWIDTH 600 0
DWIDTH 12 0
BBX 8 10 2 0
BITMAP
DE
FF
C3
C3
C3
C3
C3
C3
C3
C3
ENDCHAR
STARTCHAR o
ENCODING 111
SWIDTH 600 0
DWIDTH 12 0
BBX 10 10 1 0
BITMAP
1E00
7F80
6180
C0C0
C0C0
C0C0
C0C0
6180
7F80
1E00
ENDCHAR
STARTCHAR p
ENCODING 112
SWIDTH 600 0
DWIDTH 12 0
BBX 9 14 2 -4
BITMAP
DE00
FF00
C380
C180
C180
C180
C180
C380
FF00
DE00
C000
C000
C000
C000
ENDCHAR
STARTCHAR q
ENCODING 113
SWIDTH 600 0
DWIDTH 12 0
BBX 9 14 1 -4
BITMAP
3D80
7F80
E180
C180
C180
C180
C180
E180
7F80
3D80
0180
0180
0180
0180
ENDCHAR
STARTCHAR r
ENCODING 114
SWIDTH 600 0
DWIDTH 12 0
BBX 9 10 2 0
BITMAP
F380
F780
3800
3800
3000
3000
3000
3000
FF00
FF00
ENDCHAR
STARTCHAR s
ENCODING 115
SWIDTH 600 0
DWIDTH 12 0
BBX 10 10 1 0
BITMAP
1F00
7F80
6080
6000
7F00
3F80
01C0
4180
FF80
3F00
ENDCHAR
STARTCHAR t
ENCODING 116
SWIDTH 600 0
DWIDTH 12 0
BBX 10 14 1 0
BITMAP
1800
1800
1800
1800
FFC0
FFC0
1800
1800
1800
1800
1800
1800
1FC0
0FC0
ENDCHAR
STARTCHAR u
ENCODING 117
SWIDTH 600 0
DWIDTH 12 0
BBX 8 10 2 0
BITMAP
C3
C3
C3
C3
C3
C3
C3
C3
FF
7B
ENDCHAR
STARTCHAR v
ENCODING 118
SWIDTH 600 0
DWIDTH 12 0
BBX 10 10 1 0
BITMAP
C0C0
6180
6180
6180
3300
3300
3300
1E00
1E00
1E00
ENDCHAR
STARTCHAR w
ENCODING 119
SWIDTH 600 0
DWIDTH 12 0
BBX 12 10 0 0
BITMAP
C630
4620
6760
6F60
6F60
6960
6960
69E0
39C0
39C0
ENDCHAR
STARTCHAR x
ENCODING 120
SWIDTH 600 0
DWIDTH 12 0
BBX 10 10 1 0
BITMAP
E1C0
7380
3300
1E00
1C00
1E00
1E00
3300
6380
E1C0
ENDCHAR
STARTCHAR y
ENCODING 121
SWIDTH 600 0
DWIDTH 12 0
BBX 10 14 1 -4
BITMAP
C0C0
E1C0
6180
6180
3300
3300
3B00
1E00
1E00
0C00
0C00
1800
7800
7000
ENDCHAR
STARTCHAR z
ENCODING 122
SWIDTH 600 0
DWIDTH 12 0
BBX 8 10 2 0
BITMAP
FF
FF
07
0E
1C
38
70
E0
FF
FF
ENDCHAR
STARTCHAR braceleft
ENCODING 123
SWIDTH 600 0
DWIDTH 12 0
BBX 8 18 2 -3
BITMAP
1F
3F
30
30
18
08
0C
0C
F8
F8
0C
0C
08
18
30
30
3F
1F
ENDCHAR
STARTCHAR bar
ENCODING 124
SWIDTH 600 0
DWIDTH 12 0
BBX 2 18 5 -3
BITMAP
C0
C0
C0
C0
C0
C0
C0
C0
C0
C0
C0
C0
C0
C0
C0
C0
C0
C0
ENDCHAR
STARTCHAR braceright
ENCODING 125
SWIDTH 600 0
DWIDTH 12 0
BBX 8 18 2 -3
BITMAP
F8
FC
0C
0C
18
10
30
30
1F
1F
30
30
10
18
0C
0C
FC
F8
ENDCHAR
STARTCHAR asciitilde
ENCODING 126
SWIDTH 600 0
DWIDTH 12 0
BBX 10 3 1 5
BITMAP
78C0
FFC0
C780
ENDCHAR
ENDFONT
